<svg xmlns="http://www.w3.org/2000/svg" viewBox="0 0 80 80"><path d="M10.438 10.745c.005.172.695 17.156 17.013 23.394A25.302 25.302 0 0035 40.171v12.832h-5V60h-4l.001 6.638c-.04.98-.817 1.747-1.768 1.747H23V75h34v-6.615h-1.261c-.96 0-1.739-.765-1.739-1.706V60h-4v-6.997h-5V40.171a25.295 25.295 0 007.61-6.105c16.32-6.24 16.948-23.154 16.952-23.324l.026-1.026h-9.844c-.093-2.34-.328-3.823-.338-3.883L59.265 5h-38.53l-.14.833c-.011.06-.246 1.543-.339 3.883h-9.848l.03 1.03zM55 70.313V73H25v-2.693c1.664-.347 2.926-1.804 3-3.628V62h24v4.679c0 1.793 1.291 3.293 3 3.633zM48 60H32v-4.997h16V60zm19.486-48.284c-.347 3.296-2.249 13.56-12.51 19.079 3.959-6.508 4.79-14.01 4.804-19.08h7.706zM22.456 7h35.087c.486 4.274 1.765 23.8-13.99 31.666L43 38.94v14.062h-6V38.941l-.553-.275C20.692 30.8 21.97 11.274 22.457 7zm-2.236 4.716c.015 5.085.852 12.618 4.844 19.14-10.254-5.53-12.188-15.832-12.547-19.14h7.703z"/></svg>