<svg xmlns="http://www.w3.org/2000/svg" width="24" height="24" viewBox="0 0 6.35 6.35"><path d="M3.164.264a.797.797 0 00-.55.233l-.297.296h-.729a.8.8 0 00-.795.796v.728l-.295.297a.798.798 0 000 1.123l.295.296v.729a.8.8 0 00.795.795h.729l.296.295a.798.798 0 001.123 0l.297-.295h.728a.8.8 0 00.796-.795v-.729l.296-.296a.798.798 0 000-1.123l-.296-.297v-.728A.8.8 0 004.76.793h-.728L3.736.497a.792.792 0 00-.572-.233zm.008.53a.262.262 0 01.19.077l.374.373a.265.265 0 00.188.078h.837c.15 0 .266.117.266.266v.838a.265.265 0 00.079.188l.373.374a.26.26 0 010 .374l-.373.375a.265.265 0 00-.079.187v.838c0 .15-.116.266-.266.266h-.837a.265.265 0 00-.188.076l-.374.375a.26.26 0 01-.374 0l-.375-.375a.265.265 0 00-.187-.076h-.838a.262.262 0 01-.266-.266v-.838a.265.265 0 00-.076-.187L.87 3.362a.26.26 0 010-.374l.375-.374a.265.265 0 00.076-.188v-.838c0-.15.117-.266.266-.266h.838a.265.265 0 00.187-.078l.375-.373a.265.265 0 01.184-.078zm.791 1.32a.265.265 0 00-.182.08L2.193 3.782a.265.265 0 10.375.375l1.588-1.588a.265.265 0 00-.193-.455zm-1.582.003a.265.265 0 00-.264.264.265.265 0 00.264.265.265.265 0 00.265-.265.265.265 0 00-.265-.264zM3.97 3.704a.265.265 0 00-.265.265.265.265 0 00.265.264.265.265 0 00.264-.264.265.265 0 00-.264-.265z" color="#000" font-family="sans-serif" font-weight="400" overflow="visible" style="line-height:normal;font-variant-ligatures:normal;font-variant-position:normal;font-variant-caps:normal;font-variant-numeric:normal;font-variant-alternates:normal;font-feature-settings:normal;text-indent:0;text-align:start;text-decoration-line:none;text-decoration-style:solid;text-decoration-color:#000;text-transform:none;text-orientation:mixed;shape-padding:0;isolation:auto;mix-blend-mode:normal"/></svg>