<svg xmlns="http://www.w3.org/2000/svg" width="16" height="16" fill="none"><path fill="#212121" d="M8.205 2.005a.499.499 0 00-.38.175l-.05.036c-1.505-.442-3.212-.1-4.403 1.027-1.057 1-1.46 2.382-1.213 3.674l-.015.014-.671.635a1.347 1.347 0 000 1.98 1.53 1.53 0 001.257.397c.064.233.193.453.386.636.261.247.596.382.938.406.025.324.168.64.43.887.26.247.595.383.937.406.025.324.168.64.43.887a1.545 1.545 0 001.946.123l.33.312c.58.55 1.523.55 2.104 0 .26-.246.404-.56.431-.883.34-.025.671-.16.931-.406.26-.246.404-.561.43-.883.335-.027.662-.162.92-.405.201-.191.333-.423.394-.668a1.53 1.53 0 001.235-.4 1.347 1.347 0 000-1.98l-.594-.561.114-.42a3.824 3.824 0 00-.37-2.886c-.735-1.301-2.158-2.1-3.69-2.1H9.013a2.826 2.826 0 00-.138-.003h-.671zm4.372 5.458l.486.478a.53.53 0 00.101.077l.682.645a.412.412 0 010 .606.472.472 0 01-.641 0l-1.14-1.078a.535.535 0 00-.726 0l-.012.01a.47.47 0 000 .688l.889.84a.413.413 0 010 .607.473.473 0 01-.593.04.536.536 0 00-.675.046.467.467 0 00-.042.638.412.412 0 01-.04.564.473.473 0 01-.6.035.536.536 0 00-.679.038.467.467 0 00-.043.642c.14.17.126.417-.04.574a.48.48 0 01-.65 0l-.322-.303.084-.08a1.347 1.347 0 000-1.98 1.514 1.514 0 00-.938-.406 1.363 1.363 0 00-.43-.887 1.514 1.514 0 00-.937-.406 1.363 1.363 0 00-.43-.887 1.532 1.532 0 00-1.257-.396 1.377 1.377 0 00-.386-.637 1.524 1.524 0 00-1.102-.409 3.065 3.065 0 01.962-2.592 3.456 3.456 0 012.58-.923l-1.095.79a1.504 1.504 0 00-.294 2.178 1.64 1.64 0 002.22.3l1.347-.97h1.44l2.281 2.158zM6.168 4.608l2.223-1.603h.485a1.836 1.836 0 01.125.004h1.03c1.192 0 2.272.62 2.821 1.591.352.624.457 1.341.3 2.026L10.94 4.448a.5.5 0 00-.35-.143H8.693a.5.5 0 00-.292.094L6.925 5.464a.64.64 0 01-.857-.115.504.504 0 01.1-.741zm1.082 6.628a.472.472 0 01.64.001.412.412 0 010 .607l-.672.634a.472.472 0 01-.64 0 .412.412 0 010-.606l.672-.636zm-.726-.687l-.673.636a.472.472 0 01-.641 0 .412.412 0 01-.01-.596l.01-.01.671-.635.01-.01a.472.472 0 01.631.01.412.412 0 01.002.605zm-1.37-1.292l-.67.635-.011.01a.472.472 0 01-.63-.01.412.412 0 010-.606l.67-.635a.472.472 0 01.642 0 .412.412 0 01.01.596l-.01.01zM3.512 8.225l-.67.635a.472.472 0 01-.642 0 .412.412 0 010-.607l.671-.634a.472.472 0 01.641 0 .412.412 0 010 .606z"/></svg>