<svg xmlns="http://www.w3.org/2000/svg" data-name="Layer 1" viewBox="0 0 128 128"><path d="M128 60a2 2 0 00-2-2H91.728l-1.263-6H126a2 2 0 000-4H85v4h1.377l15.666 74.412a2 2 0 103.914-.824L105.2 122H126a2 2 0 000-4h-21.64l-1.263-6H126a2 2 0 000-4h-23.746l-1.263-6H126a2 2 0 000-4h-25.851l-1.263-6H126a2 2 0 000-4H98.044l-1.263-6H126a2 2 0 000-4H95.939l-1.263-6H126a2 2 0 000-4H93.833l-1.263-6H126a2 2 0 002-2zM21 34.818a11.786 11.786 0 109.735-21.455 11.842 11.842 0 10-23.471 0A11.766 11.766 0 0011.842 36 11.787 11.787 0 0017 34.818V48H2a2 2 0 000 4h35.535l-1.263 6H2a2 2 0 000 4h33.43l-1.263 6H2a2 2 0 000 4h31.325l-1.263 6H2a2 2 0 000 4h29.219l-1.263 6H2a2 2 0 000 4h27.114l-1.263 6H2a2 2 0 000 4h25.009l-1.263 6H2a2 2 0 000 4h22.9l-1.263 6H2a2 2 0 000 4h20.8l-.755 3.588a2 2 0 103.914.824L41.623 52h8.155l-7.767 73.791a2 2 0 001.78 2.2c.071.007.142.011.212.011a2 2 0 001.987-1.791L53.8 52H62v74a2 2 0 004 0V52h7v-4H21zm-2-5.9a2 2 0 00-1.451.624A7.846 7.846 0 014 24.222a7.75 7.75 0 016.059-7.566 2 2 0 001.457-2.556 7.727 7.727 0 01-.358-2.327 7.843 7.843 0 0115.685 0 7.727 7.727 0 01-.358 2.327 2 2 0 001.457 2.551 7.78 7.78 0 11-7.49 12.887A2 2 0 0019 28.919zm62.026 49.724a5.908 5.908 0 01-4.026.011l5.006 47.556A2 2 0 0084 128c.069 0 .141 0 .211-.011a2 2 0 001.78-2.2z"/><path d="M79 75a2 2 0 002-2V36h24a2 2 0 002-2V2a2 2 0 00-2-2H53a2 2 0 00-2 2v32a2 2 0 002 2h24v37a2 2 0 002 2zM55 32V4h48v28z"/><circle cx="61" cy="9" r="2"/><circle cx="97" cy="9" r="2"/><circle cx="97" cy="27" r="2"/><circle cx="61" cy="27" r="2"/><path d="M85 20H73a2 2 0 000 4h12a2 2 0 000-4zm3-8H70a2 2 0 000 4h18a2 2 0 000-4z"/></svg>