<svg xmlns="http://www.w3.org/2000/svg" enable-background="new 0 0 80 80" viewBox="0 0 80 80"><path d="M10.4379883,10.7451172c0.0048828,0.1716919,0.6949463,17.1555786,17.0132446,23.3942261
	C29.4135742,36.4462891,31.878418,38.5244141,35,40.1708984V53.003418h-5V60h-4l0.0009766,6.6376953
	c-0.0400391,0.9799805-0.8168945,1.7475586-1.7680664,1.7475586H23V75h34v-6.6147461h-1.2612305
	C54.7797852,68.3852539,54,67.6196289,54,66.6787109V60h-4v-6.996582h-5V40.1708984
	c3.1546631-1.6639404,5.6387939-3.7686768,7.6109009-6.1051025c16.3182373-6.2393188,16.9467163-23.1533813,16.9511108-23.3240967
	l0.0263672-1.0258789h-9.8443604c-0.0926514-2.3394775-0.328064-3.8232422-0.3382568-3.8833008L59.2646484,5H20.7353516
	l-0.1411133,0.8325195c-0.0101929,0.0600586-0.2456055,1.5438232-0.3382568,3.8833008h-9.8482666L10.4379883,10.7451172z
	 M55,70.3125V73H25v-2.6933594c1.6635742-0.3466797,2.9262695-1.8032227,3-3.6279297V62h24v4.6787109
	C52,68.4716797,53.2910156,69.9716797,55,70.3125z M48,60H32v-4.996582h16V60z M67.4863281,11.7158203
	c-0.3477783,3.2966309-2.2492676,13.5599976-12.5107422,19.0790405c3.9593506-6.5081787,4.7895508-14.0100098,4.8041382-19.0790405
	H67.4863281z M22.456543,7H57.543457c0.4853516,4.2739258,1.7641602,23.800293-13.9902344,31.6655273L43,38.9414062V53.003418h-6
	V38.9414062l-0.5532227-0.2758789C20.6923828,30.800293,21.9711914,11.2739258,22.456543,7z M20.2202759,11.7158203
	c0.0146484,5.0852051,0.8521118,12.618103,4.8440552,19.140625c-10.2548218-5.531189-12.1881104-15.8321533-12.5472412-19.140625
	H20.2202759z"/></svg>