<svg xmlns="http://www.w3.org/2000/svg" width="24" height="24" viewBox="0 0 6.35 6.35"><path d="M 11.958984 0.99804688 C 11.178309 1.0093855 10.428178 1.3258224 9.8769531 1.8769531 L 8.7558594 2.9980469 L 6.0019531 2.9980469 C 4.3569327 2.9980469 2.9960938 4.3589047 2.9960938 6.0039062 L 2.9960938 8.7558594 L 1.8828125 9.8789062 C 0.71964401 11.042018 0.71964401 12.959935 1.8828125 14.123047 L 2.9960938 15.244141 L 2.9960938 17.998047 C 2.9960938 19.643048 4.3569327 21.003906 6.0019531 21.003906 L 8.7558594 21.003906 L 9.8769531 22.117188 C 11.040077 23.280299 12.95797 23.280299 14.121094 22.117188 L 15.244141 21.003906 L 17.996094 21.003906 C 19.641114 21.003906 21.001953 19.643048 21.001953 17.998047 L 21.001953 15.244141 L 22.123047 14.123047 C 23.286215 12.959935 23.286215 11.042018 22.123047 9.8789062 L 21.001953 8.7558594 L 21.001953 6.0039062 C 21.001953 4.3589047 19.641114 2.9980469 17.996094 2.9980469 L 15.244141 2.9980469 L 14.121094 1.8769531 C 13.548168 1.3037878 12.769399 0.98636813 11.958984 0.99804688 z M 11.988281 2.9980469 C 12.258929 2.9942673 12.51366 3.1017247 12.705078 3.2929688 L 14.121094 4.703125 A 1.0001001 1.0001001 0 0 0 14.830078 4.9980469 L 17.996094 4.9980469 C 18.56013 4.9980469 19 5.4378964 19 6.0019531 L 19 9.1699219 A 1.0001001 1.0001001 0 0 0 19.296875 9.8789062 L 20.707031 11.294922 C 21.105705 11.693586 21.105705 12.306414 20.707031 12.705078 L 19.296875 14.123047 A 1.0001001 1.0001001 0 0 0 19 14.832031 L 19 17.998047 C 19 18.562104 18.56013 19.001953 17.996094 19.001953 L 14.830078 19.001953 A 1.0001001 1.0001001 0 0 0 14.121094 19.291016 L 12.705078 20.707031 C 12.306389 21.105696 11.693611 21.105696 11.294922 20.707031 L 9.8769531 19.291016 A 1.0001001 1.0001001 0 0 0 9.1679688 19.001953 L 6.0019531 19.001953 C 5.4379172 19.001953 4.9980469 18.562104 4.9980469 17.998047 L 4.9980469 14.832031 A 1.0001001 1.0001001 0 0 0 4.7089844 14.123047 L 3.2929688 12.705078 C 2.8942945 12.306414 2.8942945 11.693586 3.2929688 11.294922 L 4.7089844 9.8789062 A 1.0001001 1.0001001 0 0 0 4.9980469 9.1699219 L 4.9980469 6.0019531 C 4.9980469 5.4378964 5.4379172 4.9980469 6.0019531 4.9980469 L 9.1679688 4.9980469 A 1.0001001 1.0001001 0 0 0 9.8769531 4.703125 L 11.294922 3.2929688 C 11.479325 3.1085278 11.728501 3.0018264 11.988281 2.9980469 z M 14.978516 7.9882812 A 1.0001001 1.0001001 0 0 0 14.291016 8.2910156 L 8.2890625 14.292969 A 1.0021986 1.0021986 0 1 0 9.7070312 15.710938 L 15.708984 9.7089844 A 1.0001001 1.0001001 0 0 0 14.978516 7.9882812 z M 9 8 A 1.0000001 1.0000001 0 0 0 8 9 A 1.0000001 1.0000001 0 0 0 9 10 A 1.0000001 1.0000001 0 0 0 10 9 A 1.0000001 1.0000001 0 0 0 9 8 z M 15 14 A 1.0000001 1.0000001 0 0 0 14 15 A 1.0000001 1.0000001 0 0 0 15 16 A 1.0000001 1.0000001 0 0 0 16 15 A 1.0000001 1.0000001 0 0 0 15 14 z " color="#000" font-family="sans-serif" font-weight="400" overflow="visible" transform="scale(.26458)" style="line-height:normal;font-variant-ligatures:normal;font-variant-position:normal;font-variant-caps:normal;font-variant-numeric:normal;font-variant-alternates:normal;font-feature-settings:normal;text-indent:0;text-align:start;text-decoration-line:none;text-decoration-style:solid;text-decoration-color:#000;text-transform:none;text-orientation:mixed;shape-padding:0;isolation:auto;mix-blend-mode:normal"/></svg>