<svg xmlns="http://www.w3.org/2000/svg" data-name="Layer 1" viewBox="0 0 128 128"><path d="M128 60a2 2 0 0 0-2-2H91.728l-1.263-6H126a2 2 0 0 0 0-4H85v4h1.377l15.666 74.412a2 2 0 1 0 3.914-.824L105.2 122H126a2 2 0 0 0 0-4H104.36l-1.263-6H126a2 2 0 0 0 0-4H102.254l-1.263-6H126a2 2 0 0 0 0-4H100.149l-1.263-6H126a2 2 0 0 0 0-4H98.044l-1.263-6H126a2 2 0 0 0 0-4H95.939l-1.263-6H126a2 2 0 0 0 0-4H93.833L92.57 62H126A2 2 0 0 0 128 60zM21 34.818a11.786 11.786 0 1 0 9.735-21.455 11.842 11.842 0 1 0-23.471 0A11.766 11.766 0 0 0 11.842 36 11.787 11.787 0 0 0 17 34.818V48H2a2 2 0 0 0 0 4H37.535l-1.263 6H2a2 2 0 0 0 0 4H35.43l-1.263 6H2a2 2 0 0 0 0 4H33.325l-1.263 6H2a2 2 0 0 0 0 4H31.219l-1.263 6H2a2 2 0 0 0 0 4H29.114l-1.263 6H2a2 2 0 0 0 0 4H27.009l-1.263 6H2a2 2 0 0 0 0 4H24.9l-1.263 6H2a2 2 0 0 0 0 4H22.8l-.755 3.588a2 2 0 1 0 3.914.824L41.623 52h8.155l-7.767 73.791a2 2 0 0 0 1.78 2.2c.071.007.142.011.212.011a2 2 0 0 0 1.987-1.791L53.8 52H62v74a2 2 0 0 0 4 0V52h7V48H21zm-2-5.9a2 2 0 0 0-1.451.624A7.846 7.846 0 0 1 4 24.222a7.75 7.75 0 0 1 6.059-7.566A2 2 0 0 0 11.516 14.1a7.727 7.727 0 0 1-.358-2.327 7.843 7.843 0 0 1 15.685 0 7.727 7.727 0 0 1-.358 2.327 2 2 0 0 0 1.457 2.551 7.78 7.78 0 1 1-7.49 12.887A2 2 0 0 0 19 28.919zM81.026 78.642A5.908 5.908 0 0 1 77 78.653l5.006 47.556A2 2 0 0 0 84 128c.069 0 .141 0 .211-.011a2 2 0 0 0 1.78-2.2z"/><path d="M79,75a2,2,0,0,0,2-2V36h24a2,2,0,0,0,2-2V2a2,2,0,0,0-2-2H53a2,2,0,0,0-2,2V34a2,2,0,0,0,2,2H77V73A2,2,0,0,0,79,75ZM55,32V4h48V32Z"/><circle cx="61" cy="9" r="2"/><circle cx="97" cy="9" r="2"/><circle cx="97" cy="27" r="2"/><circle cx="61" cy="27" r="2"/><path d="M85 20H73a2 2 0 0 0 0 4H85a2 2 0 0 0 0-4zM88 12H70a2 2 0 0 0 0 4H88a2 2 0 0 0 0-4z"/></svg>