<svg xmlns="http://www.w3.org/2000/svg" width="24" height="24" fill="none" viewBox="0 0 24 24"><path fill="#000" fill-rule="evenodd" d="M12 22C17.5228 22 22 17.5228 22 12C22 6.47715 17.5228 2 12 2C6.47715 2 2 6.47715 2 12C2 17.5228 6.47715 22 12 22ZM15.2315 13.3615L16.7758 14.9095C17.0826 15.218 17.0734 15.7285 16.7552 16.0481L16.3143 16.4809L16.3048 16.4724C16.1187 16.6184 15.9041 16.7404 15.6745 16.8303C15.4607 16.9135 15.2504 16.966 15.031 16.9923C14.9302 17.003 12.5948 17.2225 9.69672 14.318C7.60017 12.2167 6.82763 10.6682 7.03155 8.97378C7.05537 8.76249 7.10746 8.55163 7.19112 8.33066C7.28187 8.09852 7.40383 7.88325 7.54977 7.69661L7.53788 7.68477L7.97313 7.24603C8.29194 6.92641 8.80157 6.91708 9.10845 7.22461L10.6528 8.7728C10.9597 9.08075 10.9509 9.59116 10.6321 9.91078L10.3754 10.1684L9.85318 10.691C9.87656 10.732 9.90019 10.7748 9.92462 10.8191C9.92868 10.8265 9.93276 10.8339 9.93686 10.8413L9.93842 10.8441C10.2114 11.3366 10.5848 12.0105 11.2931 12.7204C12.0008 13.4301 12.6732 13.8041 13.1646 14.077C13.2181 14.107 13.2689 14.1354 13.3181 14.1626L14.0961 13.3829C14.4145 13.0638 14.9239 13.0544 15.2315 13.3615Z" clip-rule="evenodd"/></svg>